<mxfile host="app.diagrams.net" agent="Mozilla/5.0 (Windows NT 10.0; Win64; x64) AppleWebKit/537.36 (KHTML, like Gecko) Chrome/136.0.0.0 Safari/537.36 Edg/136.0.0.0" version="27.0.8">
  <diagram id="kgpKYQtTHZ0yAKxKKP6v" name="Page-1">
    <mxGraphModel dx="1418" dy="764" grid="1" gridSize="10" guides="1" tooltips="1" connect="1" arrows="1" fold="1" page="1" pageScale="1" pageWidth="1100" pageHeight="850" background="#FFFFFF" math="0" shadow="0" adaptiveColors="auto">
      <root>
        <mxCell id="0" />
        <mxCell id="1" parent="0" />
        <mxCell id="4GTE--XeK_hhZSA_3p2T-7" value="" style="rounded=0;whiteSpace=wrap;html=1;" parent="1" vertex="1">
          <mxGeometry x="32" y="52" width="1035" height="747" as="geometry" />
        </mxCell>
        <mxCell id="3nuBFxr9cyL0pnOWT2aG-1" value="&lt;font face=&quot;Verdana&quot; style=&quot;font-size: 39px; font-weight: normal;&quot;&gt;Nilearn Machine Learning &lt;/font&gt;" style="shape=table;childLayout=tableLayout;rowLines=0;columnLines=0;startSize=70;html=1;whiteSpace=wrap;collapsible=0;recursiveResize=0;expand=0;fontStyle=1;shadow=0;swimlaneLine=1;labelBackgroundColor=none;rounded=1;fillColor=#b1ddf0;strokeColor=#10739e;" parent="1" vertex="1">
          <mxGeometry x="32" y="52" width="1035" height="745" as="geometry" />
        </mxCell>
        <mxCell id="3nuBFxr9cyL0pnOWT2aG-3" value="&lt;div&gt;&lt;font style=&quot;font-size: 30px;&quot;&gt;Frame&lt;/font&gt;&lt;/div&gt;" style="swimlane;horizontal=0;points=[[0,0.5],[1,0.5]];portConstraint=eastwest;startSize=40;html=1;whiteSpace=wrap;collapsible=0;recursiveResize=0;expand=0;shadow=0;swimlaneLine=1;labelBackgroundColor=none;rounded=1;fillColor=#ffe6cc;strokeColor=#d79b00;noLabel=0;fontStyle=0" parent="3nuBFxr9cyL0pnOWT2aG-1" vertex="1">
          <mxGeometry y="70" width="1035" height="408" as="geometry" />
        </mxCell>
        <mxCell id="3nuBFxr9cyL0pnOWT2aG-4" value="&lt;font style=&quot;font-size: 25px;&quot;&gt;Dataset&lt;/font&gt;" style="swimlane;connectable=0;startSize=40;html=1;whiteSpace=wrap;collapsible=0;recursiveResize=0;expand=0;shadow=0;swimlaneLine=1;labelBackgroundColor=none;rounded=1;fillColor=#d0cee2;strokeColor=#56517e;glass=0;gradientColor=none;fontStyle=0" parent="3nuBFxr9cyL0pnOWT2aG-3" vertex="1">
          <mxGeometry x="40" width="196" height="408" as="geometry">
            <mxRectangle width="196" height="408" as="alternateBounds" />
          </mxGeometry>
        </mxCell>
        <mxCell id="kv7tAygx-X13Eab9979O-32" value="" style="edgeStyle=orthogonalEdgeStyle;rounded=1;orthogonalLoop=1;jettySize=auto;html=1;shadow=0;swimlaneLine=1;labelBackgroundColor=none;fontColor=default;" parent="3nuBFxr9cyL0pnOWT2aG-4" source="3nuBFxr9cyL0pnOWT2aG-6" target="kv7tAygx-X13Eab9979O-8" edge="1">
          <mxGeometry relative="1" as="geometry" />
        </mxCell>
        <mxCell id="3nuBFxr9cyL0pnOWT2aG-6" value="OSF Data" style="rounded=1;whiteSpace=wrap;html=1;arcSize=50;shadow=0;swimlaneLine=1;labelBackgroundColor=none;fillColor=#d0cee2;strokeColor=#56517e;fontSize=17;" parent="3nuBFxr9cyL0pnOWT2aG-4" vertex="1">
          <mxGeometry x="22.25" y="107" width="135.5" height="80" as="geometry" />
        </mxCell>
        <mxCell id="kv7tAygx-X13Eab9979O-8" value="&lt;br&gt;&lt;div&gt;convert nii.gz&lt;/div&gt;&lt;br&gt;" style="shape=document;whiteSpace=wrap;html=1;boundedLbl=1;shadow=0;swimlaneLine=1;labelBackgroundColor=none;rounded=1;fontSize=17;" parent="3nuBFxr9cyL0pnOWT2aG-4" vertex="1">
          <mxGeometry x="24.75" y="270" width="130.5" height="90" as="geometry" />
        </mxCell>
        <mxCell id="3nuBFxr9cyL0pnOWT2aG-8" value="&lt;span lang=&quot;en&quot; class=&quot;VIiyi&quot;&gt;&lt;span class=&quot;JLqJ4b ChMk0b&quot;&gt;&lt;span&gt;&lt;font style=&quot;font-size: 25px;&quot;&gt;Experiment Process&lt;/font&gt;&lt;br&gt;&lt;/span&gt;&lt;/span&gt;&lt;/span&gt;" style="swimlane;connectable=0;startSize=40;html=1;whiteSpace=wrap;collapsible=0;recursiveResize=0;expand=0;shadow=0;swimlaneLine=1;labelBackgroundColor=none;rounded=1;fillColor=#d5e8d4;strokeColor=#82b366;swimlaneFillColor=none;fontStyle=0" parent="3nuBFxr9cyL0pnOWT2aG-3" vertex="1">
          <mxGeometry x="236" width="592" height="408" as="geometry">
            <mxRectangle width="592" height="408" as="alternateBounds" />
          </mxGeometry>
        </mxCell>
        <mxCell id="kv7tAygx-X13Eab9979O-15" value="" style="edgeStyle=orthogonalEdgeStyle;rounded=1;orthogonalLoop=1;jettySize=auto;html=1;shadow=0;swimlaneLine=1;labelBackgroundColor=none;fontColor=default;" parent="3nuBFxr9cyL0pnOWT2aG-8" source="3nuBFxr9cyL0pnOWT2aG-9" target="3nuBFxr9cyL0pnOWT2aG-10" edge="1">
          <mxGeometry relative="1" as="geometry" />
        </mxCell>
        <mxCell id="kv7tAygx-X13Eab9979O-14" value="" style="edgeStyle=orthogonalEdgeStyle;rounded=1;orthogonalLoop=1;jettySize=auto;html=1;shadow=0;swimlaneLine=1;labelBackgroundColor=none;fontColor=default;" parent="3nuBFxr9cyL0pnOWT2aG-8" source="3nuBFxr9cyL0pnOWT2aG-10" target="kv7tAygx-X13Eab9979O-12" edge="1">
          <mxGeometry relative="1" as="geometry" />
        </mxCell>
        <mxCell id="3nuBFxr9cyL0pnOWT2aG-25" value="" style="edgeStyle=orthogonalEdgeStyle;rounded=1;orthogonalLoop=1;jettySize=auto;html=1;shadow=0;swimlaneLine=1;labelBackgroundColor=none;fontColor=default;" parent="3nuBFxr9cyL0pnOWT2aG-8" source="3nuBFxr9cyL0pnOWT2aG-9" target="3nuBFxr9cyL0pnOWT2aG-21" edge="1">
          <mxGeometry relative="1" as="geometry">
            <Array as="points">
              <mxPoint x="94" y="187" />
              <mxPoint x="94" y="187" />
            </Array>
          </mxGeometry>
        </mxCell>
        <mxCell id="kv7tAygx-X13Eab9979O-38" value="" style="edgeStyle=orthogonalEdgeStyle;rounded=1;orthogonalLoop=1;jettySize=auto;html=1;shadow=0;swimlaneLine=1;labelBackgroundColor=none;fontColor=default;" parent="3nuBFxr9cyL0pnOWT2aG-8" source="kv7tAygx-X13Eab9979O-35" target="kv7tAygx-X13Eab9979O-37" edge="1">
          <mxGeometry relative="1" as="geometry" />
        </mxCell>
        <mxCell id="kv7tAygx-X13Eab9979O-35" value="extracted regions" style="whiteSpace=wrap;html=1;shadow=0;swimlaneLine=1;labelBackgroundColor=none;rounded=1;fillColor=#f5f5f5;fontColor=#333333;strokeColor=#666666;fontSize=17;" parent="3nuBFxr9cyL0pnOWT2aG-8" vertex="1">
          <mxGeometry x="371.5" y="80" width="171" height="90" as="geometry" />
        </mxCell>
        <mxCell id="kv7tAygx-X13Eab9979O-37" value="compute correlation" style="shape=document;whiteSpace=wrap;html=1;boundedLbl=1;shadow=0;swimlaneLine=1;labelBackgroundColor=none;rounded=1;fontSize=17;" parent="3nuBFxr9cyL0pnOWT2aG-8" vertex="1">
          <mxGeometry x="377.5" y="262" width="159" height="100" as="geometry" />
        </mxCell>
        <mxCell id="kv7tAygx-X13Eab9979O-39" value="&lt;div&gt;connectome&lt;/div&gt;&lt;div&gt;correlations&lt;/div&gt;" style="shape=process;whiteSpace=wrap;html=1;backgroundOutline=1;shadow=0;swimlaneLine=1;labelBackgroundColor=none;rounded=1;fillColor=#b1ddf0;strokeColor=#10739e;fontSize=17;" parent="3nuBFxr9cyL0pnOWT2aG-8" vertex="1">
          <mxGeometry x="360" y="430" width="194" height="96.25" as="geometry" />
        </mxCell>
        <mxCell id="kv7tAygx-X13Eab9979O-40" value="" style="edgeStyle=orthogonalEdgeStyle;rounded=1;orthogonalLoop=1;jettySize=auto;html=1;shadow=0;swimlaneLine=1;labelBackgroundColor=none;fontColor=default;" parent="3nuBFxr9cyL0pnOWT2aG-8" source="kv7tAygx-X13Eab9979O-37" target="kv7tAygx-X13Eab9979O-39" edge="1">
          <mxGeometry relative="1" as="geometry" />
        </mxCell>
        <mxCell id="kv7tAygx-X13Eab9979O-44" value="&lt;div&gt;examine&lt;/div&gt;&lt;div&gt;index in ROI&lt;br&gt;&lt;/div&gt;" style="shape=process;whiteSpace=wrap;html=1;backgroundOutline=1;shadow=0;swimlaneLine=1;labelBackgroundColor=none;rounded=1;fontSize=17;" parent="3nuBFxr9cyL0pnOWT2aG-8" vertex="1">
          <mxGeometry x="365.5" y="560" width="183" height="68" as="geometry" />
        </mxCell>
        <mxCell id="kv7tAygx-X13Eab9979O-45" value="" style="edgeStyle=orthogonalEdgeStyle;rounded=1;orthogonalLoop=1;jettySize=auto;html=1;shadow=0;swimlaneLine=1;labelBackgroundColor=none;fontColor=default;" parent="3nuBFxr9cyL0pnOWT2aG-8" source="kv7tAygx-X13Eab9979O-39" target="kv7tAygx-X13Eab9979O-44" edge="1">
          <mxGeometry relative="1" as="geometry" />
        </mxCell>
        <mxCell id="3nuBFxr9cyL0pnOWT2aG-9" value="&lt;h2&gt;&lt;font style=&quot;font-size: 19px;&quot;&gt;&lt;a style=&quot;&quot; name=&quot;_Toc71123098&quot;&gt;&lt;span lang=&quot;EN-US&quot; style=&quot;font-weight: normal;&quot;&gt;Canonical ICA&lt;/span&gt;&lt;/a&gt;&lt;/font&gt;&lt;/h2&gt;" style="rounded=1;whiteSpace=wrap;html=1;shadow=0;swimlaneLine=1;labelBackgroundColor=none;fontSize=15;fontStyle=0;fontFamily=Helvetica;verticalAlign=middle;horizontal=1;" parent="3nuBFxr9cyL0pnOWT2aG-8" vertex="1">
          <mxGeometry x="40" y="80" width="119" height="80" as="geometry" />
        </mxCell>
        <mxCell id="3nuBFxr9cyL0pnOWT2aG-10" value="&lt;font style=&quot;font-size: 19px;&quot;&gt;Dictionary Learning&lt;/font&gt;" style="rounded=1;whiteSpace=wrap;html=1;shadow=0;swimlaneLine=1;labelBackgroundColor=none;fontSize=17;" parent="3nuBFxr9cyL0pnOWT2aG-8" vertex="1">
          <mxGeometry x="189.75" y="80" width="121" height="80" as="geometry" />
        </mxCell>
        <mxCell id="3nuBFxr9cyL0pnOWT2aG-21" value="components atlas map" style="shape=document;whiteSpace=wrap;html=1;boundedLbl=1;shadow=0;swimlaneLine=1;labelBackgroundColor=none;rounded=1;fillColor=#d5e8d4;strokeColor=#82b366;fontSize=17;" parent="3nuBFxr9cyL0pnOWT2aG-8" vertex="1">
          <mxGeometry x="30" y="262" width="129" height="80" as="geometry" />
        </mxCell>
        <mxCell id="kv7tAygx-X13Eab9979O-12" value="&lt;div&gt;components&lt;/div&gt;&lt;div&gt;atlas map&lt;br&gt;&lt;/div&gt;" style="shape=document;whiteSpace=wrap;html=1;boundedLbl=1;shadow=0;swimlaneLine=1;labelBackgroundColor=none;rounded=1;fillColor=#d5e8d4;strokeColor=#82b366;fontSize=17;" parent="3nuBFxr9cyL0pnOWT2aG-8" vertex="1">
          <mxGeometry x="186" y="262" width="128.5" height="80" as="geometry" />
        </mxCell>
        <mxCell id="kv7tAygx-X13Eab9979O-21" value="&lt;div&gt;compare ICA and DL&lt;/div&gt;&lt;div&gt;stability with different subject&lt;br&gt;&lt;/div&gt;" style="shape=process;whiteSpace=wrap;html=1;backgroundOutline=1;shadow=0;swimlaneLine=1;labelBackgroundColor=none;rounded=1;size=0.07142857142857142;arcSize=18;fillColor=#b1ddf0;strokeColor=#10739e;fontSize=17;" parent="3nuBFxr9cyL0pnOWT2aG-8" vertex="1">
          <mxGeometry x="40" y="437.15" width="240" height="81.94" as="geometry" />
        </mxCell>
        <mxCell id="kv7tAygx-X13Eab9979O-28" value="" style="edgeStyle=orthogonalEdgeStyle;rounded=1;orthogonalLoop=1;jettySize=auto;html=1;shadow=0;swimlaneLine=1;labelBackgroundColor=none;fontColor=default;" parent="3nuBFxr9cyL0pnOWT2aG-8" source="3nuBFxr9cyL0pnOWT2aG-21" target="kv7tAygx-X13Eab9979O-21" edge="1">
          <mxGeometry relative="1" as="geometry">
            <Array as="points">
              <mxPoint x="90" y="390" />
              <mxPoint x="160" y="390" />
            </Array>
          </mxGeometry>
        </mxCell>
        <mxCell id="kv7tAygx-X13Eab9979O-33" value="Score explained variance" style="shape=process;whiteSpace=wrap;html=1;backgroundOutline=1;shadow=0;swimlaneLine=1;labelBackgroundColor=none;rounded=1;fillColor=#cce5ff;fillStyle=auto;strokeColor=#36393d;fontSize=17;" parent="3nuBFxr9cyL0pnOWT2aG-8" vertex="1">
          <mxGeometry x="66.25" y="560" width="187.5" height="68" as="geometry" />
        </mxCell>
        <mxCell id="kv7tAygx-X13Eab9979O-29" value="" style="edgeStyle=orthogonalEdgeStyle;rounded=1;orthogonalLoop=1;jettySize=auto;html=1;shadow=0;swimlaneLine=1;labelBackgroundColor=none;fontColor=default;" parent="3nuBFxr9cyL0pnOWT2aG-8" source="kv7tAygx-X13Eab9979O-12" target="kv7tAygx-X13Eab9979O-21" edge="1">
          <mxGeometry relative="1" as="geometry" />
        </mxCell>
        <mxCell id="kv7tAygx-X13Eab9979O-36" value="" style="edgeStyle=orthogonalEdgeStyle;rounded=1;orthogonalLoop=1;jettySize=auto;html=1;shadow=0;swimlaneLine=1;labelBackgroundColor=none;fontColor=default;" parent="3nuBFxr9cyL0pnOWT2aG-8" source="kv7tAygx-X13Eab9979O-33" target="kv7tAygx-X13Eab9979O-35" edge="1">
          <mxGeometry relative="1" as="geometry">
            <Array as="points">
              <mxPoint x="340" y="600" />
              <mxPoint x="340" y="125" />
            </Array>
          </mxGeometry>
        </mxCell>
        <mxCell id="kv7tAygx-X13Eab9979O-53" value="" style="edgeStyle=orthogonalEdgeStyle;rounded=1;orthogonalLoop=1;jettySize=auto;html=1;shadow=0;swimlaneLine=1;labelBackgroundColor=none;fontColor=default;" parent="3nuBFxr9cyL0pnOWT2aG-8" source="kv7tAygx-X13Eab9979O-21" target="kv7tAygx-X13Eab9979O-33" edge="1">
          <mxGeometry relative="1" as="geometry" />
        </mxCell>
        <mxCell id="3nuBFxr9cyL0pnOWT2aG-11" value="&lt;font style=&quot;font-size: 25px;&quot;&gt;Virtualization&lt;/font&gt;" style="swimlane;connectable=0;startSize=40;html=1;whiteSpace=wrap;collapsible=0;recursiveResize=0;expand=0;shadow=0;swimlaneLine=1;labelBackgroundColor=none;rounded=1;fillColor=#b0e3e6;strokeColor=#0e8088;fontStyle=0" parent="3nuBFxr9cyL0pnOWT2aG-3" vertex="1">
          <mxGeometry x="828" width="207" height="408" as="geometry">
            <mxRectangle width="207" height="408" as="alternateBounds" />
          </mxGeometry>
        </mxCell>
        <mxCell id="kv7tAygx-X13Eab9979O-52" value="" style="edgeStyle=orthogonalEdgeStyle;rounded=1;orthogonalLoop=1;jettySize=auto;html=1;shadow=0;swimlaneLine=1;labelBackgroundColor=none;fontColor=default;" parent="3nuBFxr9cyL0pnOWT2aG-11" source="kv7tAygx-X13Eab9979O-46" target="kv7tAygx-X13Eab9979O-51" edge="1">
          <mxGeometry relative="1" as="geometry" />
        </mxCell>
        <mxCell id="kv7tAygx-X13Eab9979O-46" value="&lt;div&gt;2D&lt;/div&gt;&lt;div&gt;connectome&lt;/div&gt;&lt;div&gt;plot&lt;br&gt;&lt;/div&gt;" style="whiteSpace=wrap;html=1;shadow=0;swimlaneLine=1;labelBackgroundColor=none;rounded=1;fontSize=16;" parent="3nuBFxr9cyL0pnOWT2aG-11" vertex="1">
          <mxGeometry x="33" y="77" width="137" height="90" as="geometry" />
        </mxCell>
        <mxCell id="kv7tAygx-X13Eab9979O-51" value="&lt;div&gt;&lt;font style=&quot;font-size: 17px;&quot;&gt;3D&lt;/font&gt;&lt;/div&gt;&lt;div&gt;&lt;font style=&quot;font-size: 17px;&quot;&gt;conectome&lt;/font&gt;&lt;/div&gt;&lt;div&gt;&lt;font style=&quot;font-size: 17px;&quot;&gt;plot&lt;/font&gt;&lt;br&gt;&lt;/div&gt;" style="shape=display;whiteSpace=wrap;html=1;shadow=0;swimlaneLine=1;labelBackgroundColor=none;rounded=1;fillColor=#b0e3e6;strokeColor=#0e8088;fontSize=16;" parent="3nuBFxr9cyL0pnOWT2aG-11" vertex="1">
          <mxGeometry x="28" y="267" width="147" height="70" as="geometry" />
        </mxCell>
        <mxCell id="kv7tAygx-X13Eab9979O-47" value="" style="edgeStyle=orthogonalEdgeStyle;rounded=1;orthogonalLoop=1;jettySize=auto;html=1;shadow=0;swimlaneLine=1;labelBackgroundColor=none;fontColor=default;" parent="3nuBFxr9cyL0pnOWT2aG-3" source="kv7tAygx-X13Eab9979O-44" target="kv7tAygx-X13Eab9979O-46" edge="1">
          <mxGeometry relative="1" as="geometry">
            <Array as="points">
              <mxPoint x="805" y="594" />
              <mxPoint x="805" y="122" />
            </Array>
          </mxGeometry>
        </mxCell>
        <mxCell id="3nuBFxr9cyL0pnOWT2aG-15" value="&lt;div&gt;&lt;font style=&quot;font-size: 30px; font-weight: normal;&quot;&gt;sub process&lt;/font&gt;&lt;br&gt;&lt;/div&gt;" style="swimlane;horizontal=0;points=[[0,0.5],[1,0.5]];portConstraint=eastwest;startSize=40;html=1;whiteSpace=wrap;collapsible=0;recursiveResize=0;expand=0;shadow=0;swimlaneLine=1;labelBackgroundColor=none;rounded=1;fillColor=#ffe6cc;strokeColor=#d79b00;" parent="3nuBFxr9cyL0pnOWT2aG-1" vertex="1">
          <mxGeometry y="478" width="1035" height="267" as="geometry" />
        </mxCell>
        <mxCell id="3nuBFxr9cyL0pnOWT2aG-16" value="" style="swimlane;connectable=0;startSize=0;html=1;whiteSpace=wrap;collapsible=0;recursiveResize=0;expand=0;shadow=0;swimlaneLine=1;labelBackgroundColor=none;rounded=1;" parent="3nuBFxr9cyL0pnOWT2aG-15" vertex="1">
          <mxGeometry x="40" width="196" height="267" as="geometry">
            <mxRectangle width="196" height="267" as="alternateBounds" />
          </mxGeometry>
        </mxCell>
        <mxCell id="3nuBFxr9cyL0pnOWT2aG-17" value="stander MNI tamplates" style="rounded=1;whiteSpace=wrap;html=1;shadow=0;swimlaneLine=1;labelBackgroundColor=none;fillColor=#d0cee2;strokeColor=#56517e;fontSize=17;" parent="3nuBFxr9cyL0pnOWT2aG-16" vertex="1">
          <mxGeometry x="30" y="79" width="120" height="88" as="geometry" />
        </mxCell>
        <mxCell id="3nuBFxr9cyL0pnOWT2aG-18" value="" style="swimlane;connectable=0;startSize=0;html=1;whiteSpace=wrap;collapsible=0;recursiveResize=0;expand=0;shadow=0;swimlaneLine=1;labelBackgroundColor=none;rounded=1;" parent="3nuBFxr9cyL0pnOWT2aG-15" vertex="1">
          <mxGeometry x="236" width="592" height="267" as="geometry">
            <mxRectangle width="592" height="267" as="alternateBounds" />
          </mxGeometry>
        </mxCell>
        <mxCell id="3nuBFxr9cyL0pnOWT2aG-23" value="" style="swimlane;connectable=0;startSize=0;html=1;whiteSpace=wrap;collapsible=0;recursiveResize=0;expand=0;shadow=0;swimlaneLine=1;labelBackgroundColor=none;rounded=1;" parent="3nuBFxr9cyL0pnOWT2aG-15" vertex="1">
          <mxGeometry x="828" width="207" height="267" as="geometry">
            <mxRectangle width="207" height="267" as="alternateBounds" />
          </mxGeometry>
        </mxCell>
        <mxCell id="3nuBFxr9cyL0pnOWT2aG-24" value="" style="edgeStyle=orthogonalEdgeStyle;rounded=1;orthogonalLoop=1;jettySize=auto;html=1;shadow=0;swimlaneLine=1;labelBackgroundColor=none;fontColor=default;" parent="3nuBFxr9cyL0pnOWT2aG-1" source="3nuBFxr9cyL0pnOWT2aG-17" target="3nuBFxr9cyL0pnOWT2aG-9" edge="1">
          <mxGeometry relative="1" as="geometry">
            <Array as="points">
              <mxPoint x="225" y="607" />
              <mxPoint x="225" y="190" />
            </Array>
          </mxGeometry>
        </mxCell>
        <mxCell id="kv7tAygx-X13Eab9979O-48" value="" style="edgeStyle=orthogonalEdgeStyle;rounded=1;orthogonalLoop=1;jettySize=auto;html=1;shadow=0;swimlaneLine=1;labelBackgroundColor=none;fontColor=default;" parent="3nuBFxr9cyL0pnOWT2aG-1" source="kv7tAygx-X13Eab9979O-8" target="3nuBFxr9cyL0pnOWT2aG-17" edge="1">
          <mxGeometry relative="1" as="geometry" />
        </mxCell>
      </root>
    </mxGraphModel>
  </diagram>
</mxfile>
